<svg width="32" height="32" viewBox="0 0 32 32" fill="none" xmlns="http://www.w3.org/2000/svg">
<g clip-path="url(#clip0)">
<path d="M28.7682 8.94399L29.0242 28.624C29.0242 29.28 28.4482 29.872 27.7762 29.872H8.6562C8.0002 29.872 7.4082 29.296 7.4082 28.624V3.32799C7.4242 2.65599 8.0002 2.07999 8.6562 2.07999H22.5602L28.7682 8.94399Z" fill="#DDE3EB"/>
<path d="M28.8801 14.656L23.8401 8.78398L28.0321 8.36798L28.8641 8.78398V14.656H28.8801Z" fill="#C5CBD7"/>
<path d="M22.1441 26.992H4.57613C3.72813 26.992 2.88013 26.32 2.88013 25.36V17.728C2.88013 16.912 3.58413 16.096 4.57613 16.096H22.1441C22.9921 16.096 23.8401 16.784 23.8401 17.728V25.36C23.7121 26.32 22.9921 26.992 22.1441 26.992Z" fill="#374151"/>
<path d="M22.5923 2.07999V7.43999C22.5923 8.19199 23.2483 8.84799 24.0003 8.84799H28.9283" fill="#9CA3AF"/>
<path d="M8.86416 23.984H5.71216V18.992H6.76816V23.088H8.84816V23.984H8.86416Z" fill="white"/>
<path d="M9.53613 23.984V18.992H10.5921V23.984H9.53613V23.984Z" fill="white"/>
<path d="M11.696 23.984V18.992H12.56L14.704 22.192H14.736V18.992H15.728V23.984H14.88L12.736 20.752H12.704V23.984H11.696V23.984Z" fill="white"/>
<path d="M19.1681 21.152L21.0081 24H19.7441L18.4001 21.856L17.9041 22.416V23.984H16.8481V18.992H17.9041V21.2H17.9521L19.7921 18.992H20.9441L19.1681 21.152Z" fill="white"/>
</g>
<defs>
<clipPath id="clip0">
<rect width="26.144" height="27.792" fill="white" transform="translate(2.88013 2.07999)"/>
</clipPath>
</defs>
</svg>
