<svg xmlns="http://www.w3.org/2000/svg" width="40" height="40" viewBox="0 0 40 40"><script xmlns=""/>
  <g id="nextcam" transform="translate(-872 -6)">
    <g id="Group_44008" data-name="Group 44008" transform="translate(488 -122)">
      <circle id="Ellipse_465" data-name="Ellipse 465" cx="20" cy="20" r="20" transform="translate(384 128)" fill="#f3f3f5"/>
      <path id="Intersection_1" data-name="Intersection 1" d="M29,7.5a13.467,13.467,0,0,1,.908-4.877A19.992,19.992,0,0,1,40,20c0,.256,0,.512-.014.766A13.5,13.5,0,0,1,29,7.5Z" transform="translate(384 128)" fill="#0b62ab" opacity="0.05"/>
      <path id="Intersection_2" data-name="Intersection 2" d="M23.421,32.543a12.016,12.016,0,0,1,14.891,7.445A19.961,19.961,0,0,1,23.421,32.543Z" transform="translate(365 128)" fill="#77a841" opacity="0.17"/>
    </g>
    <g id="Group_44009" data-name="Group 44009" transform="translate(13067.828 175)">
      <g id="Group_42724" data-name="Group 42724" transform="translate(-12186.829 -159)">
        <path id="Path_13531" data-name="Path 13531" d="M103.878,90.219l.759-4.3a.791.791,0,0,0,.015-.114v-.1c0-.3-.137-.455-.417-.455h-1.26c-.41,0-.645.228-.721.683l-.751,4.28H100l1.146-6.519h3.749c.88,0,1.32.463,1.32,1.4a3.587,3.587,0,0,1-.076.721l-.774,4.394h-1.487Z" transform="translate(-100 -81.469)" fill="#0b63ac"/>
        <path id="Path_13532" data-name="Path 13532" d="M189.453,90.219q-1.753,0-1.753-1.548a2.1,2.1,0,0,1,.023-.3c.015-.1.03-.212.046-.334l.379-2.17A2.29,2.29,0,0,1,190.6,83.7h1.017q1.753,0,1.753,1.548a2.11,2.11,0,0,1-.023.3c-.015.1-.03.212-.046.334l-.3,1.677h-3.688l-.076.455q-.011.068-.023.114a.433.433,0,0,0-.008.1c0,.3.167.455.493.455h2.907l-.266,1.541Zm2.428-4.386a.71.71,0,0,0,.015-.106v-.1c0-.319-.167-.486-.508-.486h-1.04a.655.655,0,0,0-.486.175.933.933,0,0,0-.228.516l-.1.531h2.246Z" transform="translate(-181.044 -81.469)" fill="#0b63ac"/>
        <path id="Path_13533" data-name="Path 13533" d="M260.648,90.219l-.736-2.11-1.51,2.11h-1.6l2.6-3.316-1.229-3.2H259.9l.736,2.072,1.472-2.072h1.525l-2.5,3.2,1.305,3.316Z" transform="translate(-244.901 -81.469)" fill="#0b63ac"/>
        <path id="Path_13534" data-name="Path 13534" d="M346.139,63.05c-1.093,0-1.639-.516-1.639-1.541,0-.1.008-.2.015-.319a2.263,2.263,0,0,1,.053-.357l1.146-6.534h1.525l-.395,2.224H348.2l-.228,1.3h-1.358l-.531,3.066c-.008.046-.015.083-.023.121a.61.61,0,0,0-.008.121.443.443,0,0,0,.493.508h.736l-.25,1.412Z" transform="translate(-325.945 -54.3)" fill="#0b63ac"/>
      </g>
    </g>
    <g id="Group_42774" data-name="Group 42774" transform="translate(9183 -283.3)">
      <g id="Group_42772" data-name="Group 42772" transform="translate(-8300 310.3)">
        <path id="Path_13552" data-name="Path 13552" d="M518.019,120.39c-1.143,0-1.719-.508-1.719-1.52a1.872,1.872,0,0,1,.021-.288c.01-.1.026-.21.042-.325l.372-2.1a2.256,2.256,0,0,1,2.4-2.154h2.233l-.262,1.52h-2.191c-.4,0-.634.231-.708.687l-.346,2.018c-.01.042-.016.079-.021.11a.633.633,0,0,0-.005.1c0,.3.162.446.487.446h2.217l-.262,1.5h-2.259Z" transform="translate(-516.3 -114)" fill="#77a841"/>
        <path id="Path_13553" data-name="Path 13553" d="M614.758,120.39c-.907,0-1.358-.4-1.358-1.206a2.822,2.822,0,0,1,.047-.524l.1-.624a1.67,1.67,0,0,1,1.892-1.494h2.028l.073-.362a.41.41,0,0,0,.011-.1v-.094c0-.309-.168-.461-.5-.461H614.38l.262-1.52h2.673q1.706,0,1.7,1.52a1.872,1.872,0,0,1-.021.288c-.01.1-.026.21-.042.325l-.744,4.256Zm2.516-2.7h-1.829a.5.5,0,0,0-.535.487l-.063.372a.431.431,0,0,0-.01.126c0,.21.131.309.388.309h1.824Z" transform="translate(-608.31 -114)" fill="#77a841"/>
        <path id="Path_13554" data-name="Path 13554" d="M731.6,120.579l.744-4.2a.433.433,0,0,0,.01-.11v-.1c0-.3-.142-.446-.425-.446h-.907c-.372,0-.6.22-.671.66l-.744,4.2h-1.457l.744-4.2a.433.433,0,0,0,.01-.11v-.11a.381.381,0,0,0-.425-.435h-.87c-.4,0-.634.225-.708.671l-.734,4.193H724.7l1.122-6.384h1.421l-.11.7a1.6,1.6,0,0,1,.6-.556,2.083,2.083,0,0,1,.839-.142h.587a1.035,1.035,0,0,1,1.143.744,1.515,1.515,0,0,1,.729-.592,2.76,2.76,0,0,1,.954-.157h.608c.865,0,1.295.456,1.295,1.368a3.959,3.959,0,0,1-.073.708l-.76,4.3Z" transform="translate(-713.777 -114.19)" fill="#77a841"/>
      </g>
    </g>
  </g>
</svg>
