<svg width="610" height="177" viewBox="0 0 610 177" fill="none" xmlns="http://www.w3.org/2000/svg">
<path d="M55.205 124.669L66.0325 63.5163C66.185 62.9063 66.185 62.3725 66.185 61.915C66.185 61.4575 66.185 60.9238 66.185 60.4663C66.185 56.12 64.2025 53.985 60.2375 53.985H42.3188C36.5238 53.985 33.0925 57.2637 32.025 63.745L21.35 124.745H0L16.3175 31.8725H69.6925C82.2738 31.8725 88.5263 38.5062 88.5263 51.7737C88.5263 54.9 88.145 58.3313 87.4588 62.0675L76.4025 124.669H55.205Z" fill="#0B63AC"/>
<path d="M119.865 124.669C103.242 124.669 94.855 117.273 94.855 102.556C94.855 101.26 94.9312 99.8113 95.16 98.3625C95.3125 96.9138 95.5412 95.3125 95.77 93.635L101.184 62.6775C104.767 42.0138 116.434 31.72 136.106 31.72H150.594C167.216 31.72 175.604 39.1163 175.604 53.8325C175.604 55.1288 175.527 56.5775 175.299 58.0263C175.146 59.475 174.917 61.0763 174.689 62.7538L170.495 86.62H118.035L116.967 93.1013C116.815 93.7113 116.739 94.245 116.662 94.7025C116.586 95.16 116.586 95.6938 116.586 96.1513C116.586 100.498 118.95 102.633 123.677 102.633H165.157L161.345 124.516H119.865V124.669ZM154.406 62.22C154.559 61.61 154.559 61.0763 154.559 60.695C154.559 60.2375 154.559 59.8563 154.559 59.3225C154.559 54.7475 152.119 52.46 147.315 52.46H132.446C129.396 52.46 127.109 53.2988 125.584 54.9C123.982 56.5013 122.915 58.9413 122.305 62.22L120.856 69.845H152.881L154.406 62.22Z" fill="#0B63AC"/>
<path d="M224.251 124.669L213.805 94.55L192.302 124.593H169.504L206.409 77.3175L188.871 31.72H213.652L224.175 61.2288L245.144 31.72H266.875L231.419 77.3175L250.1 124.593H224.251V124.669Z" fill="#0B63AC"/>
<path d="M287.615 124.669C272.06 124.669 264.282 117.349 264.282 102.785C264.282 101.336 264.359 99.8112 264.435 98.2862C264.587 96.685 264.816 95.0075 265.121 93.2537L281.439 0.228745H303.17L297.527 31.8725H316.895L313.616 50.325H294.325L286.7 93.94C286.547 94.55 286.471 95.0837 286.395 95.6937C286.319 96.2275 286.319 96.8375 286.319 97.4475C286.319 102.251 288.682 104.691 293.41 104.691H303.932L300.349 124.821H287.615V124.669Z" fill="#0B63AC"/>
<path d="M342.439 124.669C325.816 124.669 317.429 117.273 317.429 102.556C317.429 101.26 317.505 99.8113 317.734 98.3625C317.886 96.9138 318.115 95.3125 318.344 93.635L323.757 63.0588C327.341 42.1663 339.007 31.72 358.68 31.72H391.163L387.35 53.8325H355.477C349.682 53.8325 346.251 57.1875 345.184 63.8213L340.151 93.1775C339.999 93.7875 339.922 94.3213 339.846 94.7788C339.77 95.2363 339.77 95.77 339.77 96.2275C339.77 100.574 342.134 102.709 346.861 102.709H379.115L375.303 124.593H342.439V124.669Z" fill="#77A841"/>
<path d="M411.216 124.669C398.025 124.669 391.468 118.798 391.468 107.131C391.468 104.463 391.696 101.946 392.154 99.5063L393.603 90.4325C395.89 75.945 405.04 68.7013 421.129 68.7013H450.638L451.705 63.44C451.858 62.83 451.857 62.2963 451.857 61.915C451.857 61.4575 451.857 61.0763 451.857 60.5425C451.857 56.0438 449.417 53.8325 444.614 53.8325H405.726L409.539 31.72H448.426C464.972 31.72 473.207 39.1163 473.207 53.8325C473.207 55.1288 473.131 56.5775 472.903 58.0263C472.75 59.475 472.521 61.0763 472.293 62.7538L461.465 124.669H411.216ZM447.816 85.3238H421.205C416.706 85.3238 414.114 87.6875 413.428 92.415L412.513 97.8288C412.36 98.2863 412.36 98.8963 412.36 99.6588C412.36 102.709 414.266 104.158 418.003 104.158H444.538L447.816 85.3238Z" fill="#77A841"/>
<path d="M576.679 124.669L587.506 63.5163C587.659 62.9063 587.659 62.3725 587.659 61.915C587.659 61.4575 587.659 60.9238 587.659 60.4663C587.659 56.12 585.6 53.985 581.482 53.985H568.291C562.877 53.985 559.599 57.1875 558.531 63.5925L547.704 124.745H526.506L537.334 63.5925C537.486 62.9825 537.486 62.4488 537.486 61.9913C537.486 61.5338 537.486 61 537.486 60.39C537.486 56.1962 535.427 54.0613 531.31 54.0613H518.652C512.857 54.0613 509.426 57.34 508.359 63.8212L497.684 124.821H476.334L492.651 31.9488H513.315L511.714 41.9375C514.459 37.9725 517.432 35.3038 520.482 33.855C523.532 32.4825 527.65 31.7963 532.682 31.7963H541.222C550.296 31.7963 555.786 35.38 557.845 42.6238C560.742 38.43 564.25 35.5325 568.444 34.0075C572.637 32.4825 577.212 31.72 582.321 31.72H591.166C603.747 31.72 610 38.3538 610 51.6212C610 54.7475 609.619 58.1787 608.932 61.915L597.876 124.516H576.679V124.669Z" fill="#77A841"/>
</svg>
