<svg width="610" height="177" viewBox="0 0 610 177" fill="none" xmlns="http://www.w3.org/2000/svg">
<path d="M6.93876 175.528C3.81251 175.528 2.28751 174.155 2.28751 171.486C2.28751 171.029 2.36375 170.495 2.44 169.885L4.49876 157.99C5.10876 154.406 7.24375 152.576 10.8275 152.576H17.9188L17.4613 155.169H10.37C8.54001 155.169 7.39626 156.084 7.09126 157.99L5.03251 169.885C4.95626 170.19 4.95626 170.495 4.95626 170.724C4.95626 172.173 5.795 172.859 7.39625 172.859H14.4875L14.03 175.451H6.93876V175.528Z" fill="#1f2937"/>
<path d="M23.8662 175.527C21.5787 175.527 20.435 174.612 20.435 172.706C20.435 172.325 20.435 172.02 20.5112 171.562L20.9687 169.122C21.1975 167.902 21.7312 166.988 22.4175 166.301C23.18 165.691 24.2475 165.386 25.62 165.386H32.1012L32.33 164.09C32.4062 163.937 32.4062 163.785 32.4062 163.633C32.4062 163.48 32.4062 163.328 32.4062 163.251C32.4062 161.955 31.72 161.269 30.3475 161.269H23.3325L23.79 158.753H30.805C33.55 158.753 34.9225 159.973 34.9225 162.489C34.9225 162.718 34.9225 162.946 34.9225 163.251C34.9225 163.48 34.8462 163.785 34.8462 164.014L32.7875 175.527H23.8662V175.527ZM31.72 167.521H25.3912C24.095 167.521 23.4087 168.207 23.1037 169.504L22.7987 171.181C22.7987 171.257 22.7225 171.41 22.7225 171.486C22.7225 171.562 22.7225 171.639 22.7225 171.715C22.7225 172.63 23.2562 173.087 24.3237 173.087H30.6525L31.72 167.521Z" fill="#1f2937"/>
<path d="M57.7975 175.528L59.8563 164.09C59.9325 163.709 59.9325 163.404 59.9325 163.099C59.9325 161.955 59.3988 161.345 58.3313 161.345H55.3575C54.7475 161.345 54.2138 161.574 53.7563 161.955C53.2988 162.413 52.9938 163.099 52.8413 164.09L50.7825 175.528H48.3425L50.4013 164.09C50.4775 163.709 50.4775 163.404 50.4775 163.099C50.4775 161.955 49.9438 161.345 48.8763 161.345H46.2075C45.3688 161.345 44.7588 161.574 44.3013 162.031C43.92 162.489 43.615 163.175 43.3863 164.166L41.3275 175.604H38.8875L41.8613 158.829H44.225L43.8438 160.888C44.3013 160.125 44.835 159.591 45.3688 159.286C45.9788 158.981 46.665 158.829 47.6563 158.829H49.8675C50.7063 158.829 51.3163 159.058 51.85 159.439C52.3075 159.82 52.6125 160.43 52.6888 161.269C53.1463 160.354 53.68 159.744 54.3663 159.363C55.0525 158.981 55.815 158.829 56.73 158.829H59.17C61.2288 158.829 62.22 159.973 62.22 162.26C62.22 162.489 62.22 162.794 62.1438 163.099C62.0675 163.404 62.0675 163.709 62.0675 164.014L60.0088 175.68H57.7975V175.528Z" fill="#1f2937"/>
<path d="M71.37 175.527C68.625 175.527 67.2525 174.307 67.2525 171.791C67.2525 171.257 67.3288 170.8 67.405 170.266L68.5487 164.014C69.1587 160.506 71.1413 158.753 74.3438 158.753H77.3175C80.0625 158.753 81.435 159.973 81.435 162.489C81.435 163.023 81.3588 163.556 81.2825 164.014L80.5963 168.131H70.15L69.7688 170.19C69.6925 170.495 69.6925 170.8 69.6925 171.029C69.6925 172.325 70.3788 173.011 71.8275 173.011H79.3L78.8425 175.527H71.37V175.527ZM78.995 163.937C79.0713 163.785 79.0713 163.632 79.0713 163.48C79.0713 163.327 79.0713 163.175 79.0713 163.099C79.0713 161.802 78.385 161.116 77.0125 161.116H73.9625C72.285 161.116 71.2175 162.031 70.9125 163.937L70.5313 165.996H78.6138L78.995 163.937Z" fill="#1f2937"/>
<path d="M85.6288 175.527L88.6025 158.753H90.9663L90.585 160.811C91.0425 160.049 91.5763 159.515 92.11 159.21C92.72 158.905 93.4063 158.753 94.3975 158.753H97.8288L97.3713 161.269H92.8725C92.0338 161.269 91.4238 161.497 90.9663 161.955C90.585 162.412 90.28 163.099 90.0513 164.09L87.9925 175.527H85.6288V175.527Z" fill="#1f2937"/>
<path d="M103.853 175.527C101.565 175.527 100.421 174.612 100.421 172.706C100.421 172.325 100.421 172.02 100.498 171.562L100.955 169.122C101.184 167.902 101.718 166.988 102.404 166.301C103.166 165.691 104.234 165.386 105.606 165.386H112.088L112.316 164.09C112.393 163.937 112.393 163.785 112.393 163.633C112.393 163.48 112.393 163.328 112.393 163.251C112.393 161.955 111.706 161.269 110.334 161.269H103.319L103.776 158.753H110.791C113.536 158.753 114.909 159.973 114.909 162.489C114.909 162.718 114.909 162.946 114.909 163.251C114.909 163.48 114.833 163.785 114.833 164.014L112.774 175.527H103.853V175.527ZM111.783 167.521H105.454C104.158 167.521 103.471 168.207 103.166 169.504L102.861 171.181C102.861 171.257 102.785 171.41 102.785 171.486C102.785 171.562 102.785 171.639 102.785 171.715C102.785 172.63 103.319 173.087 104.386 173.087H110.715L111.783 167.521Z" fill="#1f2937"/>
<path d="M140.148 175.528L139.766 170.953H132.065L130.083 175.528H127.566L137.708 152.653H140.681L142.893 175.528H140.148ZM138.47 156.16L132.98 168.818H139.538L138.47 156.16Z" fill="#1f2937"/>
<path d="M148.459 175.528L152.5 152.653H155.016L150.975 175.528H148.459Z" fill="#1f2937"/>
<path d="M176.29 175.528L176.976 171.41H167.064L167.445 169.428L179.797 152.729H182.847L179.95 169.199H181.704L181.322 171.41H179.569L178.882 175.528H176.29ZM179.645 156.236L169.885 169.123H177.357L179.645 156.236Z" fill="#1f2937"/>
<path d="M186.584 175.528L187.422 170.648H189.939L189.1 175.528H186.584Z" fill="#1f2937"/>
<path d="M199.47 175.528C198.174 175.528 197.259 175.223 196.649 174.689C196.115 174.155 195.81 173.316 195.81 172.325C195.81 171.868 195.886 171.41 195.962 170.953L198.402 157.228C198.631 155.779 199.165 154.635 200.004 153.873C200.842 153.034 201.986 152.653 203.587 152.653H209.23C210.526 152.653 211.441 152.958 212.051 153.491C212.585 154.025 212.89 154.864 212.89 155.855C212.89 156.084 212.89 156.313 212.89 156.541C212.89 156.77 212.814 156.999 212.814 157.228L210.374 170.953C210.145 172.401 209.611 173.545 208.772 174.308C207.934 175.146 206.79 175.528 205.265 175.528H199.47V175.528ZM210.069 157.685C210.069 157.609 210.069 157.456 210.145 157.38C210.145 157.304 210.145 157.151 210.145 157.075C210.145 156.541 209.992 156.084 209.687 155.779C209.382 155.474 208.925 155.321 208.239 155.321H203.587C202.825 155.321 202.215 155.55 201.757 156.008C201.3 156.465 200.995 157.075 200.842 157.838L198.555 170.648C198.555 170.724 198.479 170.876 198.479 170.953C198.479 171.029 198.479 171.181 198.479 171.258C198.479 171.791 198.631 172.249 198.936 172.554C199.241 172.859 199.699 173.011 200.385 173.011H205.036C205.799 173.011 206.409 172.783 206.866 172.325C207.324 171.868 207.629 171.258 207.781 170.495L210.069 157.685Z" fill="#1f2937"/>
<path d="M55.205 124.669L66.0325 63.5163C66.185 62.9063 66.185 62.3725 66.185 61.915C66.185 61.4575 66.185 60.9238 66.185 60.4663C66.185 56.12 64.2025 53.985 60.2375 53.985H42.3188C36.5238 53.985 33.0925 57.2637 32.025 63.745L21.35 124.745H0L16.3175 31.8725H69.6925C82.2738 31.8725 88.5263 38.5062 88.5263 51.7737C88.5263 54.9 88.145 58.3313 87.4588 62.0675L76.4025 124.669H55.205Z" fill="#0B63AC"/>
<path d="M119.865 124.669C103.242 124.669 94.855 117.273 94.855 102.556C94.855 101.26 94.9312 99.8113 95.16 98.3625C95.3125 96.9138 95.5412 95.3125 95.77 93.635L101.184 62.6775C104.767 42.0138 116.434 31.72 136.106 31.72H150.594C167.216 31.72 175.604 39.1163 175.604 53.8325C175.604 55.1288 175.527 56.5775 175.299 58.0263C175.146 59.475 174.917 61.0763 174.689 62.7538L170.495 86.62H118.035L116.967 93.1013C116.815 93.7113 116.739 94.245 116.662 94.7025C116.586 95.16 116.586 95.6938 116.586 96.1513C116.586 100.498 118.95 102.633 123.677 102.633H165.157L161.345 124.516H119.865V124.669ZM154.406 62.22C154.559 61.61 154.559 61.0763 154.559 60.695C154.559 60.2375 154.559 59.8563 154.559 59.3225C154.559 54.7475 152.119 52.46 147.315 52.46H132.446C129.396 52.46 127.109 53.2988 125.584 54.9C123.982 56.5013 122.915 58.9413 122.305 62.22L120.856 69.845H152.881L154.406 62.22Z" fill="#0B63AC"/>
<path d="M224.251 124.669L213.805 94.55L192.302 124.593H169.504L206.409 77.3175L188.871 31.72H213.652L224.175 61.2288L245.144 31.72H266.875L231.419 77.3175L250.1 124.593H224.251V124.669Z" fill="#0B63AC"/>
<path d="M287.615 124.669C272.06 124.669 264.282 117.349 264.282 102.785C264.282 101.336 264.359 99.8112 264.435 98.2862C264.587 96.685 264.816 95.0075 265.121 93.2537L281.439 0.228745H303.17L297.527 31.8725H316.895L313.616 50.325H294.325L286.7 93.94C286.547 94.55 286.471 95.0837 286.395 95.6937C286.319 96.2275 286.319 96.8375 286.319 97.4475C286.319 102.251 288.682 104.691 293.41 104.691H303.932L300.349 124.821H287.615V124.669Z" fill="#0B63AC"/>
<path d="M342.439 124.669C325.816 124.669 317.429 117.273 317.429 102.556C317.429 101.26 317.505 99.8113 317.734 98.3625C317.886 96.9138 318.115 95.3125 318.344 93.635L323.757 63.0588C327.341 42.1663 339.007 31.72 358.68 31.72H391.163L387.35 53.8325H355.477C349.682 53.8325 346.251 57.1875 345.184 63.8213L340.151 93.1775C339.999 93.7875 339.922 94.3213 339.846 94.7788C339.77 95.2363 339.77 95.77 339.77 96.2275C339.77 100.574 342.134 102.709 346.861 102.709H379.115L375.303 124.593H342.439V124.669Z" fill="#77A841"/>
<path d="M411.216 124.669C398.025 124.669 391.468 118.798 391.468 107.131C391.468 104.463 391.696 101.946 392.154 99.5063L393.603 90.4325C395.89 75.945 405.04 68.7013 421.129 68.7013H450.638L451.705 63.44C451.858 62.83 451.857 62.2963 451.857 61.915C451.857 61.4575 451.857 61.0763 451.857 60.5425C451.857 56.0438 449.417 53.8325 444.614 53.8325H405.726L409.539 31.72H448.426C464.972 31.72 473.207 39.1163 473.207 53.8325C473.207 55.1288 473.131 56.5775 472.903 58.0263C472.75 59.475 472.521 61.0763 472.293 62.7538L461.465 124.669H411.216ZM447.816 85.3238H421.205C416.706 85.3238 414.114 87.6875 413.428 92.415L412.513 97.8288C412.36 98.2863 412.36 98.8963 412.36 99.6588C412.36 102.709 414.266 104.158 418.003 104.158H444.538L447.816 85.3238Z" fill="#77A841"/>
<path d="M576.679 124.669L587.506 63.5163C587.659 62.9063 587.659 62.3725 587.659 61.915C587.659 61.4575 587.659 60.9238 587.659 60.4663C587.659 56.12 585.6 53.985 581.482 53.985H568.291C562.877 53.985 559.599 57.1875 558.531 63.5925L547.704 124.745H526.506L537.334 63.5925C537.486 62.9825 537.486 62.4488 537.486 61.9913C537.486 61.5338 537.486 61 537.486 60.39C537.486 56.1962 535.427 54.0613 531.31 54.0613H518.652C512.857 54.0613 509.426 57.34 508.359 63.8212L497.684 124.821H476.334L492.651 31.9488H513.315L511.714 41.9375C514.459 37.9725 517.432 35.3038 520.482 33.855C523.532 32.4825 527.65 31.7963 532.682 31.7963H541.222C550.296 31.7963 555.786 35.38 557.845 42.6238C560.742 38.43 564.25 35.5325 568.444 34.0075C572.637 32.4825 577.212 31.72 582.321 31.72H591.166C603.747 31.72 610 38.3538 610 51.6212C610 54.7475 609.619 58.1787 608.932 61.915L597.876 124.516H576.679V124.669Z" fill="#77A841"/>
</svg>
